<?xml version="1.0" encoding="utf-8"?>
<!-- Generator: Adobe Illustrator 18.0.0, SVG Export Plug-In . SVG Version: 6.00 Build 0)  -->
<!DOCTYPE svg PUBLIC "-//W3C//DTD SVG 1.1//EN" "http://www.w3.org/Graphics/SVG/1.1/DTD/svg11.dtd">
<svg version="1.1" id="Layer_1" xmlns="http://www.w3.org/2000/svg" xmlns:xlink="http://www.w3.org/1999/xlink" x="0px" y="0px"
	 viewBox="0 0 64 64" enable-background="new 0 0 64 64" xml:space="preserve">
<g>
	<path d="M64,27c0-3.4-2.3-6.3-5.5-7.1L54.1,6.7c-1-3-3.8-5-7-5H16.9c-3.2,0-6,2-7,5L5.5,19.9C2.3,20.8,0,23.6,0,27v15.3
		c0,1.9,0.8,3.7,2,5v9.3c0,2.8,2.3,5,5,5h6c2.8,0,5-2.3,5-5v-7h28v7c0,2.8,2.3,5,5,5h6c2.8,0,5-2.3,5-5v-9.3c1.2-1.3,2-3.1,2-5V27z
		 M13.7,8c0.5-1.4,1.7-2.3,3.2-2.3h30.3c1.4,0,2.7,0.9,3.2,2.3l3.9,11.7H9.8L13.7,8z M14,56.6c0,0.6-0.5,1-1,1H7c-0.6,0-1-0.5-1-1
		v-7h1.3H14V56.6z M18,45.7H7.3c-1.8,0-3.3-1.5-3.3-3.3V27c0-1.8,1.5-3.3,3.3-3.3h49.3c1.8,0,3.3,1.5,3.3,3.3v15.3
		c0,1.8-1.5,3.3-3.3,3.3H46H18z M58,56.6c0,0.6-0.5,1-1,1h-6c-0.6,0-1-0.5-1-1v-7h6.7H58V56.6z"/>
	<path d="M14,29c-3.3,0-6,2.7-6,6s2.7,6,6,6s6-2.7,6-6S17.3,29,14,29z M14,37c-1.1,0-2-0.9-2-2s0.9-2,2-2s2,0.9,2,2S15.1,37,14,37z"
		/>
	<path d="M50,29c-3.3,0-6,2.7-6,6s2.7,6,6,6s6-2.7,6-6S53.3,29,50,29z M50,37c-1.1,0-2-0.9-2-2s0.9-2,2-2s2,0.9,2,2S51.1,37,50,37z"
		/>
</g>
</svg>
