<?xml version="1.0" encoding="utf-8"?>
<!-- Generator: Adobe Illustrator 18.0.0, SVG Export Plug-In . SVG Version: 6.00 Build 0)  -->
<!DOCTYPE svg PUBLIC "-//W3C//DTD SVG 1.1//EN" "http://www.w3.org/Graphics/SVG/1.1/DTD/svg11.dtd">
<svg version="1.1" id="Layer_1" xmlns="http://www.w3.org/2000/svg" xmlns:xlink="http://www.w3.org/1999/xlink" x="0px" y="0px"
	 viewBox="0 0 64 64" enable-background="new 0 0 64 64" xml:space="preserve">
<path d="M64,42c0-7.8-5.2-14.5-12.4-17c3.3-2.6,5.4-6.5,5.4-11c0-7.7-6.3-14-14-14c-5.1,0-9.7,2.8-12.2,7.1C29,6.4,27.1,6,25,6
	C15.6,6,8,13.6,8,23c0,5.8,2.9,10.9,7.4,14C6.5,39.8,0,48.2,0,58v6h50v-6c0-2.1-0.3-4.1-0.8-6H64V42z M43,4c5.5,0,10,4.5,10,10
	s-4.5,10-10,10c-0.4,0-0.7,0-1-0.1c0-0.3,0-0.6,0-0.9c0-5.9-3-11.1-7.6-14.1C36.2,5.9,39.4,4,43,4z M12,23c0-7.2,5.8-13,13-13
	s13,5.8,13,13s-5.8,13-13,13S12,30.2,12,23z M46,60H4v-2c0-9.9,8.1-18,18-18h6c9.9,0,18,8.1,18,18V60z M60,48H47.6
	c-2.7-5.2-7.3-9.2-13-11c3.1-2.1,5.5-5.3,6.6-9h4.2c8,0,14.5,6.3,14.5,14V48z"/>
</svg>
